# xmcd
#
# Track frame offsets: 
#        150
#        24630
#        39988
#        57836
#        73588
#        91506
#        113186
#        128866
#        149327
#        170063
#        187222
#        210446
#        224695
#
# Disc length: 3295 seconds
#
# Revision: 2
# Processed by: cddbd v1.5.2PL0 Copyright (c) Steve Scherf et al.
# Submitted via: ExactAudioCopyFreeDBPlugin 1.0
#
DISCID=c20cdd0d
DTITLE=红苹果 - DTSES极度烧I
DYEAR=2006
DGENRE=DTS
TTITLE0=东风破
TTITLE1=花心
TTITLE2=挥着翅膀的女孩
TTITLE3=柠檬树
TTITLE4=怨苍天变了心
TTITLE5=约定
TTITLE6=雨中的旋律
TTITLE7=泪海
TTITLE8=羞答答的玫瑰静悄悄的开
TTITLE9=午夜的心情
TTITLE10=秋去秋来
TTITLE11=娃娃
TTITLE12=飘洋过海来看你
EXTD=
EXTT0=
EXTT1=
EXTT2=
EXTT3=
EXTT4=
EXTT5=
EXTT6=
EXTT7=
EXTT8=
EXTT9=
EXTT10=
EXTT11=
EXTT12=
PLAYORDER=
